<svg xmlns="http://www.w3.org/2000/svg" xmlns:svg="http://www.w3.org/2000/svg" id="SVGRoot" width="16" height="16" version="1.1" viewBox="0 0 16 16"><metadata id="metadata818"/><g id="layer1" transform="translate(0,-8)"><path style="opacity:.7;fill:#2a7fff;fill-opacity:1;stroke:none;stroke-width:2;stroke-linecap:butt;stroke-linejoin:miter;stroke-miterlimit:4;stroke-dasharray:none;stroke-opacity:.97660822;paint-order:normal" id="rect1324" d="m 1,11 v 2 h 10 v 10 h 2 V 11 Z"/><path style="opacity:.7;fill:#2a7fff;fill-opacity:1;stroke:none;stroke-width:2;stroke-linecap:butt;stroke-linejoin:miter;stroke-miterlimit:4;stroke-dasharray:none;stroke-opacity:.97660822;paint-order:normal" id="path879" d="M 7.9472656,19 C 7.9775765,19.42477 7.6864119,19.784296 7.3316451,19.980141 6.8220082,20.320094 6.3123713,20.660047 5.8027344,21 8.8684896,21 11.934245,21 15,21 c 0,-0.666667 0,-1.333333 0,-2 -2.350911,0 -4.701823,0 -7.0527344,0 z"/><path style="opacity:.3;fill:#2a7fff;fill-opacity:1;stroke:none;stroke-width:2;stroke-linecap:butt;stroke-linejoin:miter;stroke-miterlimit:4;stroke-dasharray:none;stroke-opacity:.97660822;paint-order:normal" id="path877" d="M 5,16.503906 C 4.3333333,16.052083 3.6666667,15.60026 3,15.148438 3,17.098958 3,19.049479 3,21 c 0.9342448,0 1.8684896,0 2.8027344,0 0.5930099,-0.398845 1.1923238,-0.788671 1.78125,-1.193359 C 7.7956078,19.642038 8.0419175,19.203839 7.9012819,19 6.9341879,19 5.967094,19 5,19 5,18.167969 5,17.335937 5,16.503906 Z"/><path style="opacity:.7;fill:#2a7fff;fill-opacity:1;stroke:none;stroke-width:2;stroke-linecap:butt;stroke-linejoin:miter;stroke-miterlimit:4;stroke-dasharray:none;stroke-opacity:.97660822;paint-order:normal" id="rect1322" d="M 3 1 L 3 7.1484375 L 5 8.5039062 L 5 1 L 3 1 z" transform="translate(0,8)"/><path id="Symbol-4-6-8" d="M 1,17.238584 V 15 L 6.950059,19.034097 1,23 v -2.198912 z" style="display:inline;opacity:1;fill:green;fill-opacity:1;stroke:none;stroke-width:.04999533"/></g></svg>