<svg xmlns="http://www.w3.org/2000/svg" xmlns:svg="http://www.w3.org/2000/svg" id="SVGRoot" width="24" height="24" version="1.1" viewBox="0 0 24 24"><metadata id="metadata818"/><g id="layer1"><path id="path857" d="m 188.5,3.5 h -5 v 5 z" style="display:inline;opacity:1;fill:#fff;fill-opacity:1;stroke:#000;stroke-width:1;stroke-miterlimit:4;stroke-dasharray:none;stroke-opacity:1"/><path id="path859" d="m 190.5,8 v 12.5 h 12 v -2 h -10 V 8 Z" style="opacity:1;fill:#fff;fill-opacity:1;stroke:#000;stroke-width:1;stroke-linecap:butt;stroke-linejoin:miter;stroke-miterlimit:4;stroke-dasharray:none;stroke-opacity:1;paint-order:normal"/><path id="path861" d="m 187.5,10.5 v 2 h 3 v -2 z m 11,12 h 2 v -12 h -8 v 2 h 6 z" style="opacity:1;fill:#fff;fill-opacity:1;stroke:#000;stroke-width:1;stroke-linecap:butt;stroke-linejoin:miter;stroke-miterlimit:4;stroke-dasharray:none;stroke-opacity:1;paint-order:normal"/><path style="opacity:1;fill:#fff;fill-opacity:1;stroke:#000;stroke-width:1;stroke-linecap:butt;stroke-linejoin:miter;stroke-miterlimit:4;stroke-dasharray:none;stroke-opacity:1;paint-order:normal" id="path865" d="m 8.5,5.5 v 14 h 14 v -3 h -11 v -11 z"/><path style="opacity:1;fill:#fff;fill-opacity:1;stroke:#000;stroke-width:1;stroke-linecap:butt;stroke-linejoin:miter;stroke-miterlimit:4;stroke-dasharray:none;stroke-opacity:1;paint-order:normal" id="path867" d="m 5.5,8.5 v 3 h 3 v -3 z m 11,14 h 3 v -14 h -8 v 3 h 5 z"/><circle id="circle869" cx="-10" cy="4" r="1.5" style="opacity:1;vector-effect:none;fill:#fff;fill-opacity:1;fill-rule:nonzero;stroke:#000;stroke-width:1;stroke-linecap:butt;stroke-linejoin:miter;stroke-miterlimit:4;stroke-dasharray:none;stroke-dashoffset:0;stroke-opacity:1;paint-order:normal"/><path id="path871" d="m 48.5,3.5 h -5 v 5 z" style="display:inline;opacity:1;fill:#fff;fill-opacity:1;stroke:#000;stroke-width:1;stroke-miterlimit:4;stroke-dasharray:none;stroke-opacity:1"/><circle style="opacity:1;vector-effect:none;fill:#fff;fill-opacity:1;fill-rule:nonzero;stroke:#000;stroke-width:1;stroke-linecap:butt;stroke-linejoin:miter;stroke-miterlimit:4;stroke-dasharray:none;stroke-dashoffset:0;stroke-opacity:1;paint-order:normal" id="path1820" cx="3.5" cy="3.5" r="2"/><g id="g1502" transform="translate(-314,-197)"><path id="path865-3" d="m 284.5,205 v 12.5 h 12 v -2 h -10 V 205 Z" style="opacity:1;fill:#fff;fill-opacity:1;stroke:#000;stroke-width:1;stroke-linecap:butt;stroke-linejoin:miter;stroke-miterlimit:4;stroke-dasharray:none;stroke-opacity:1;paint-order:normal"/><path id="path867-6" d="m 281.5,207.5 v 2 h 3 v -2 z m 11,12 h 2 v -12 h -8 v 2 h 6 z" style="opacity:1;fill:#fff;fill-opacity:1;stroke:#000;stroke-width:1;stroke-linecap:butt;stroke-linejoin:miter;stroke-miterlimit:4;stroke-dasharray:none;stroke-opacity:1;paint-order:normal"/><circle style="opacity:1;vector-effect:none;fill:#fff;fill-opacity:1;fill-rule:nonzero;stroke:#000;stroke-width:1;stroke-linecap:butt;stroke-linejoin:miter;stroke-miterlimit:4;stroke-dasharray:none;stroke-dashoffset:0;stroke-opacity:1;paint-order:normal" id="circle869-7" cx="279" cy="202" r="1.5"/></g></g></svg>