<svg xmlns="http://www.w3.org/2000/svg" xmlns:svg="http://www.w3.org/2000/svg" id="SVGRoot" width="16" height="16" version="1.1" viewBox="0 0 16 16"><metadata id="metadata818"/><g id="layer1" transform="translate(0,-8)"><path style="opacity:.7;fill:none;fill-rule:evenodd;stroke:#2a7fff;stroke-width:4;stroke-linecap:round;stroke-linejoin:miter;stroke-miterlimit:4;stroke-dasharray:none;stroke-opacity:1" id="path4977" d="M 55,16 H 65 M 60,11 V 21"/><path id="path4979" d="m 22.521364,16.478636 h 10 m -5,-5 v 10" style="opacity:.7;fill:none;fill-rule:evenodd;stroke:#2a7fff;stroke-width:3;stroke-linecap:round;stroke-linejoin:miter;stroke-miterlimit:4;stroke-dasharray:none;stroke-opacity:1"/><path style="color:#000;font-style:normal;font-variant:normal;font-weight:400;font-stretch:normal;font-size:medium;line-height:normal;font-family:sans-serif;font-variant-ligatures:normal;font-variant-position:normal;font-variant-caps:normal;font-variant-numeric:normal;font-variant-alternates:normal;font-feature-settings:normal;text-indent:0;text-align:start;text-decoration:none;text-decoration-line:none;text-decoration-style:solid;text-decoration-color:#000;letter-spacing:normal;word-spacing:normal;text-transform:none;writing-mode:lr-tb;direction:ltr;text-orientation:mixed;dominant-baseline:auto;baseline-shift:baseline;text-anchor:start;white-space:normal;shape-padding:0;clip-rule:nonzero;display:inline;overflow:visible;visibility:visible;opacity:.7;isolation:auto;mix-blend-mode:normal;color-interpolation:sRGB;color-interpolation-filters:linearRGB;solid-color:#000;solid-opacity:1;vector-effect:none;fill:#2a7fff;fill-opacity:1;fill-rule:evenodd;stroke:none;stroke-width:2;stroke-linecap:round;stroke-linejoin:miter;stroke-miterlimit:4;stroke-dasharray:none;stroke-dashoffset:0;stroke-opacity:1;color-rendering:auto;image-rendering:auto;shape-rendering:auto;text-rendering:auto;enable-background:accumulate" id="path4981" d="M -12.015625,9.9863281 A 1.0001,1.0001 0 0 0 -13,11 v 2.173828 A 3,3 0 0 1 -12,13 a 3,3 0 0 1 1,0.175781 V 11 A 1.0001,1.0001 0 0 0 -12.015625,9.9863281 Z M -17,15 a 1.0001,1.0001 0 1 0 0,2 h 2.173828 A 3,3 0 0 1 -15,16 a 3,3 0 0 1 0.175781,-1 z m 7.826172,0 A 3,3 0 0 1 -9,16 3,3 0 0 1 -9.175781,17 H -7 a 1.0001,1.0001 0 1 0 0,-2 z M -13,18.824219 V 21 a 1.0001,1.0001 0 1 0 2,0 V 18.826172 A 3,3 0 0 1 -12,19 3,3 0 0 1 -13,18.824219 Z"/><path style="opacity:.7;fill:none;fill-rule:evenodd;stroke:#2a7fff;stroke-width:3;stroke-linecap:round;stroke-linejoin:miter;stroke-miterlimit:4;stroke-dasharray:none;stroke-opacity:1" id="path4983" d="M 39,16 H 49 M 44,11 V 21"/><path style="opacity:.7;fill:none;fill-rule:evenodd;stroke:#2a7fff;stroke-width:2;stroke-linecap:round;stroke-linejoin:miter;stroke-miterlimit:4;stroke-dasharray:none;stroke-opacity:1" id="path836" d="m 8,19.985759 v 1.999999"/><path style="opacity:.7;fill:none;fill-rule:evenodd;stroke:#2a7fff;stroke-width:2;stroke-linecap:round;stroke-linejoin:miter;stroke-miterlimit:4;stroke-dasharray:none;stroke-opacity:1" id="path832" d="m 8,9.9857565 10e-8,2.0000015"/><path style="opacity:.7;fill:none;fill-rule:evenodd;stroke:#2a7fff;stroke-width:2;stroke-linecap:round;stroke-linejoin:miter;stroke-miterlimit:4;stroke-dasharray:none;stroke-opacity:1" id="path830" d="m 12.014242,16.000001 h 1.999999"/><path style="opacity:.7;fill:none;fill-rule:evenodd;stroke:#2a7fff;stroke-width:2;stroke-linecap:round;stroke-linejoin:miter;stroke-miterlimit:4;stroke-dasharray:none;stroke-opacity:1" id="path4981-3" d="M 2.0142425,16 H 3.9930053"/><path style="opacity:.7;fill:none;fill-rule:evenodd;stroke:#2a7fff;stroke-width:3;stroke-linecap:round;stroke-linejoin:miter;stroke-miterlimit:4;stroke-dasharray:none;stroke-opacity:1" id="path1509" d="m -32.5,20 v 2.5"/><path style="opacity:.7;fill:none;fill-rule:evenodd;stroke:#2a7fff;stroke-width:3;stroke-linecap:round;stroke-linejoin:miter;stroke-miterlimit:4;stroke-dasharray:none;stroke-opacity:1" id="path1505" d="M -32.5,10.5 V 13"/><path style="opacity:.7;fill:none;fill-rule:evenodd;stroke:#2a7fff;stroke-width:3;stroke-linecap:round;stroke-linejoin:miter;stroke-miterlimit:4;stroke-dasharray:none;stroke-opacity:1" id="path1503" d="m -29,16.5 h 2.5"/><path style="opacity:.7;fill:none;fill-rule:evenodd;stroke:#2a7fff;stroke-width:3;stroke-linecap:round;stroke-linejoin:miter;stroke-miterlimit:4;stroke-dasharray:none;stroke-opacity:1" id="path840" d="M -38.5,16.5 H -36"/></g></svg>