<svg xmlns="http://www.w3.org/2000/svg" xmlns:svg="http://www.w3.org/2000/svg" id="SVGRoot" width="24" height="24" version="1.1" viewBox="0 0 24 24"><metadata id="metadata818"/><g id="layer1"><path style="color:#000;font-style:normal;font-variant:normal;font-weight:400;font-stretch:normal;font-size:medium;line-height:normal;font-family:sans-serif;font-variant-ligatures:normal;font-variant-position:normal;font-variant-caps:normal;font-variant-numeric:normal;font-variant-alternates:normal;font-feature-settings:normal;text-indent:0;text-align:start;text-decoration:none;text-decoration-line:none;text-decoration-style:solid;text-decoration-color:#000;letter-spacing:normal;word-spacing:normal;text-transform:none;writing-mode:lr-tb;direction:ltr;text-orientation:mixed;dominant-baseline:auto;baseline-shift:baseline;text-anchor:start;white-space:normal;shape-padding:0;clip-rule:nonzero;display:inline;overflow:visible;visibility:visible;opacity:.7;isolation:auto;mix-blend-mode:normal;color-interpolation:sRGB;color-interpolation-filters:linearRGB;solid-color:#000;solid-opacity:1;vector-effect:none;fill:#2a7fff;fill-opacity:1;fill-rule:evenodd;stroke:none;stroke-width:2;stroke-linecap:round;stroke-linejoin:miter;stroke-miterlimit:4;stroke-dasharray:none;stroke-dashoffset:0;stroke-opacity:1;color-rendering:auto;image-rendering:auto;shape-rendering:auto;text-rendering:auto;enable-background:accumulate" id="path4882" d="M 21.966797 0.97070312 A 1.0001 1.0001 0 0 0 21.609375 1.0527344 C 19.066954 2.1117166 16.773453 3.3600206 14.697266 4.7714844 C 14.215622 4.4413072 13.635985 4.2460938 13.013672 4.2460938 C 11.368662 4.2460938 10.013672 5.6010841 10.013672 7.2460938 C 10.013672 7.6379109 10.095022 8.0109492 10.234375 8.3554688 C 6.2631295 12.104952 3.3150123 16.601359 1.0820312 21.564453 A 1.0001 1.0001 0 1 0 2.90625 22.384766 C 5.0484798 17.623378 7.8143858 13.376143 11.546875 9.8417969 C 11.983434 10.091107 12.479475 10.246094 13.013672 10.246094 C 14.658681 10.246094 16.013672 8.8911034 16.013672 7.2460938 C 16.013672 6.9443551 15.953746 6.6584631 15.869141 6.3828125 C 17.820874 5.0663897 19.977813 3.8977397 22.376953 2.8984375 A 1.0001 1.0001 0 0 0 21.966797 0.97070312 z"/><path style="opacity:.7;fill:none;fill-rule:evenodd;stroke:#2a7fff;stroke-width:2;stroke-linecap:round;stroke-linejoin:miter;stroke-miterlimit:4;stroke-dasharray:none;stroke-opacity:1" id="path815" d="m -2.00658,1.9748837 c -10.050397,4.1862434 -16.091037,11.3118143 -20,19.9999993"/><circle id="circle817" cx="-10.987" cy="7.247" r="2" style="opacity:.7;fill:#2a7fff;fill-opacity:1;stroke:#2a7fff;stroke-width:2;stroke-linecap:butt;stroke-linejoin:miter;stroke-miterlimit:4;stroke-dasharray:none;stroke-opacity:1;paint-order:normal"/></g></svg>