<svg xmlns="http://www.w3.org/2000/svg" xmlns:svg="http://www.w3.org/2000/svg" id="SVGRoot" width="16" height="16" version="1.1" viewBox="0 0 16 16"><metadata id="metadata818"/><g id="layer1" transform="translate(0,-8)"><path id="path4882" d="M 14,10 C 7.9823832,12.506489 4.3404687,16.798 2,22" style="opacity:.7;fill:none;fill-rule:evenodd;stroke:#2a7fff;stroke-width:2;stroke-linecap:round;stroke-linejoin:miter;stroke-miterlimit:4;stroke-dasharray:none;stroke-opacity:1"/><circle style="opacity:.7;fill:#000;fill-opacity:1;fill-rule:nonzero;stroke:#2a7fff;stroke-width:2;stroke-linecap:round;stroke-linejoin:miter;stroke-miterlimit:4;stroke-dasharray:none;stroke-dashoffset:2.00314951;stroke-opacity:1;paint-order:normal" id="path2188" cx="3" cy="11" r="1"/><path style="color:#000;font-style:normal;font-variant:normal;font-weight:400;font-stretch:normal;font-size:medium;line-height:normal;font-family:sans-serif;font-variant-ligatures:normal;font-variant-position:normal;font-variant-caps:normal;font-variant-numeric:normal;font-variant-alternates:normal;font-feature-settings:normal;text-indent:0;text-align:start;text-decoration:none;text-decoration-line:none;text-decoration-style:solid;text-decoration-color:#000;letter-spacing:normal;word-spacing:normal;text-transform:none;writing-mode:lr-tb;direction:ltr;text-orientation:mixed;dominant-baseline:auto;baseline-shift:baseline;text-anchor:start;white-space:normal;shape-padding:0;clip-rule:nonzero;display:inline;overflow:visible;visibility:visible;opacity:.5;isolation:auto;mix-blend-mode:normal;color-interpolation:sRGB;color-interpolation-filters:linearRGB;solid-color:#000;solid-opacity:1;vector-effect:none;fill:#2a7fff;fill-opacity:1;fill-rule:nonzero;stroke:none;stroke-width:1;stroke-linecap:round;stroke-linejoin:miter;stroke-miterlimit:4;stroke-dasharray:none;stroke-dashoffset:2.00314951;stroke-opacity:1;paint-order:normal;color-rendering:auto;image-rendering:auto;shape-rendering:auto;text-rendering:auto;enable-background:accumulate" id="path2190" d="M 12.351562 1.6484375 L 4.8730469 2.328125 C 4.9504536 2.5396006 5 2.7639372 5 3 C 5 3.1106048 4.984639 3.2181625 4.9667969 3.3242188 L 10.167969 2.8515625 C 10.858728 2.420884 11.584657 2.0194702 12.351562 1.6484375 z M 2.328125 4.8730469 L 1.6367188 12.480469 C 2.0065544 11.740561 2.4054403 11.019073 2.8378906 10.318359 L 3.3242188 4.9667969 C 3.2181625 4.984639 3.1106048 5 3 5 C 2.7639372 5 2.5396006 4.9504536 2.328125 4.8730469 z" transform="translate(0,8)"/></g></svg>