<svg xmlns="http://www.w3.org/2000/svg" xmlns:svg="http://www.w3.org/2000/svg" id="SVGRoot" width="24" height="24" version="1.1" viewBox="0 0 24 24"><metadata id="metadata818"/><g id="layer1"><g id="g35014" transform="matrix(1,0,0,-1,-60,24)"><path id="path35010" d="m 63,2 c -0.554,0 -1,0.446 -1,1 v 18 c 0,0.554 0.446,1 1,1 h 18 c 0.554,0 1,-0.446 1,-1 V 6 L 78,2 Z m 4,1 h 10 c 0.554,0 1,0.446 1,1 v 4 c 0,0.554 -0.446,1 -1,1 H 67 C 66.446,9 66,8.554 66,8 V 4 c 0,-0.554 0.446,-1 1,-1 z m -2.111328,8 H 79.111328 C 79.603773,11 80,11.401791 80,11.900391 v 7.199218 C 80,19.598209 79.603773,20 79.111328,20 H 64.888672 C 64.396228,20 64,19.598209 64,19.099609 V 11.900391 C 64,11.401791 64.396228,11 64.888672,11 Z" style="opacity:.7;fill:#2a7fff;fill-opacity:1;fill-rule:nonzero;stroke:none;stroke-width:2;stroke-linecap:butt;stroke-linejoin:round;stroke-miterlimit:4;stroke-dasharray:none;stroke-dashoffset:2;stroke-opacity:1;paint-order:normal"/><rect id="rect35012" width="3" height="5" x="74" y="3.5" rx="1" ry="1" style="opacity:.7;fill:#2a7fff;fill-opacity:1;fill-rule:nonzero;stroke:none;stroke-width:2;stroke-linecap:butt;stroke-linejoin:round;stroke-miterlimit:4;stroke-dasharray:none;stroke-dashoffset:2;stroke-opacity:1;paint-order:normal"/></g><rect style="opacity:.3;fill:#2a7fff;fill-opacity:1;fill-rule:nonzero;stroke:none;stroke-width:2;stroke-linecap:butt;stroke-linejoin:round;stroke-miterlimit:4;stroke-dasharray:none;stroke-dashoffset:2;stroke-opacity:1;paint-order:normal" id="rect35224" width="12" height="2" x="6" y="6" rx="1" ry="1"/><rect style="opacity:.3;fill:#2a7fff;fill-opacity:1;fill-rule:nonzero;stroke:none;stroke-width:2.19089031;stroke-linecap:butt;stroke-linejoin:round;stroke-miterlimit:4;stroke-dasharray:none;stroke-dashoffset:2;stroke-opacity:1;paint-order:normal" id="rect35226" width="12" height="2" x="6" y="9" rx="1.2" ry="1"/></g></svg>