<svg xmlns="http://www.w3.org/2000/svg" xmlns:svg="http://www.w3.org/2000/svg" id="SVGRoot" width="16" height="16" version="1.1" viewBox="0 0 16 16"><metadata id="metadata818"/><g id="layer1" transform="translate(0,-8)"><path style="opacity:.7;fill:none;fill-opacity:1;fill-rule:nonzero;stroke:#2a7fff;stroke-width:1;stroke-linecap:butt;stroke-linejoin:miter;stroke-miterlimit:4;stroke-dasharray:none;stroke-dashoffset:2;stroke-opacity:1;paint-order:normal" id="path1207" d="m 21.5,18.5 h 13 m -13,-5 h 13 m -4,-3 v 11 m -5,-11 v 11 m -4,-11 h 13 v 11 h -13 z"/><path id="path936" d="m 1.5,17.5 c 4.3333333,0.666667 8.666667,0.666667 13,0 m -13,-3 c 4.3333333,-0.666667 8.666667,-0.666667 13,0 m -4,-4 c 0.650292,3.616036 0.682877,7.280165 0,11 m -5,-11 c -0.6584443,3.641034 -0.6748477,7.307062 0,11 M 2,11.5 c 4.2825076,-1.305586 7.61369,-1.360845 12,0 0.666667,3 0.666667,6 0,9 -4.413583,1.374278 -7.7421039,1.291863 -12,0 -0.676645,-3.026341 -0.6566267,-6.025562 0,-9 z" style="opacity:.7;fill:none;fill-opacity:1;fill-rule:nonzero;stroke:#2a7fff;stroke-width:1;stroke-linecap:butt;stroke-linejoin:miter;stroke-miterlimit:4;stroke-dasharray:none;stroke-dashoffset:2;stroke-opacity:1;paint-order:normal"/></g></svg>