<svg xmlns="http://www.w3.org/2000/svg" xmlns:svg="http://www.w3.org/2000/svg" id="SVGRoot" width="24" height="24" version="1.1" viewBox="0 0 24 24"><metadata id="metadata818"/><g id="layer1"><path id="path12050" d="m 21.911199,14.123368 c -6.600755,0.71961 -13.2015094,0.75593 -19.8022638,0 M 21.911199,9.8963864 c -6.547167,-0.6162539 -13.149694,-0.5958768 -19.8022638,0 M 15.317045,5.6874681 c 0.745272,4.2149396 0.677069,8.4298789 0,12.6448179 M 8.7030887,5.6874681 c -0.6694844,4.1881603 -0.648054,8.4039569 0,12.6448179 M 21.317131,6.2293888 c 1.126377,3.8798542 1.139893,7.7338272 0,11.5609772 -6.23134,1.11845 -12.4354929,1.095083 -18.6141279,0 -1.2446021,-3.825373 -1.0716944,-7.682961 0,-11.5609772 6.1513941,-1.1462631 12.3573259,-1.1199636 18.6141279,0 z" style="opacity:.7;fill:none;stroke:#2a7fff;stroke-width:1.67007041;stroke-linecap:butt;stroke-linejoin:miter;stroke-miterlimit:4;stroke-dasharray:none;stroke-opacity:1"/></g></svg>