<svg xmlns="http://www.w3.org/2000/svg" xmlns:svg="http://www.w3.org/2000/svg" id="SVGRoot" width="24" height="24" version="1.1" viewBox="0 0 24 24"><metadata id="metadata818"/><g id="layer1"><rect style="opacity:.9;fill:#2a7fff;fill-opacity:1;stroke:none;stroke-width:1;stroke-linecap:butt;stroke-linejoin:miter;stroke-miterlimit:4;stroke-dasharray:none;stroke-opacity:1;paint-order:normal" id="rect2927" width="9" height="2" x="2" y="21"/><rect style="opacity:.9;fill:#2a7fff;fill-opacity:1;stroke:none;stroke-width:1;stroke-linecap:butt;stroke-linejoin:miter;stroke-miterlimit:4;stroke-dasharray:none;stroke-opacity:1;paint-order:normal" id="rect2929" width="9" height="2" x="13" y="21"/><circle style="opacity:.7;fill:#2a7fff;fill-opacity:1;fill-rule:nonzero;stroke:none;stroke-width:1;stroke-linecap:round;stroke-linejoin:miter;stroke-miterlimit:4;stroke-dasharray:none;stroke-opacity:1;paint-order:normal" id="path3756" cx="17" cy="16" r="3"/><path style="opacity:.7;fill:#2a7fff;fill-opacity:1;fill-rule:evenodd;stroke:none;stroke-width:1.00157475;stroke-linecap:butt;stroke-linejoin:miter;stroke-miterlimit:4;stroke-dasharray:none;stroke-opacity:1" id="path1658" d="M 17.761905,2 C 18.897428,2 21,4.1025723 21,5.238095 c 0,1.1355228 -1.57952,1.57952 -1.57952,1.57952 L 16.182385,3.57952 c 0,0 0.443997,-1.57952 1.57952,-1.57952 z M 15.372861,4.3890438 18.610956,7.6271387 10.515719,15.722376 7.277624,12.484281 Z M 6.4681002,13.293805 9.7061953,16.5319 9.6666663,16.571429 4,19 6.4285712,13.333334 Z"/><path style="opacity:.7;fill:#2a7fff;fill-opacity:1;fill-rule:evenodd;stroke:none;stroke-width:1.00157475;stroke-linecap:butt;stroke-linejoin:miter;stroke-miterlimit:4;stroke-dasharray:none;stroke-opacity:1" id="path1658-3" d="m -34.951172,1.048828 c -1.402705,0 -4,2.5972953 -4,4 0,1.4027047 1.951172,1.9511719 1.951172,1.9511719 l 4,-4 c 0,0 -0.548467,-1.9511719 -1.951172,-1.9511719 z M -32,3.9999999 l -4,4 L -26,18 -22,14 Z M -21,15 l -4,4 0.04883,0.04883 7,3 -3,-7 z"/><path style="fill:#2a7fff;fill-opacity:1;fill-rule:evenodd;stroke:none;stroke-width:1px;stroke-linecap:butt;stroke-linejoin:miter;stroke-opacity:1" id="path1682" d="M -34,6.9999999 -25,16 l -1,1 -9,-9.0000001 z"/><path style="fill:#2a7fff;fill-opacity:1;fill-rule:evenodd;stroke:none;stroke-width:1px;stroke-linecap:butt;stroke-linejoin:miter;stroke-opacity:1" id="path1686" d="m -24,19 5,2 -4,-3 z"/><circle style="opacity:.7;fill:#2a7fff;fill-opacity:1;fill-rule:nonzero;stroke:none;stroke-width:1.00157475;stroke-linecap:round;stroke-linejoin:bevel;stroke-miterlimit:4;stroke-dasharray:none;stroke-opacity:1;paint-order:normal" id="path1690" cx="-35" cy="19" r="3"/><path style="opacity:.7;fill:#2a7fff;fill-opacity:1;fill-rule:nonzero;stroke:none;stroke-width:1.00157475;stroke-linecap:round;stroke-linejoin:bevel;stroke-miterlimit:4;stroke-dasharray:none;stroke-opacity:1;paint-order:normal" id="circle1692" d="M -36.898437,16.679688 A 3,3 0 0 0 -38,19 a 3,3 0 0 0 3,3 3,3 0 0 0 2.322266,-1.101562 A 3.5,3.5 0 0 1 -33.5,21 3.5,3.5 0 0 1 -37,17.5 a 3.5,3.5 0 0 1 0.101563,-0.820312 z"/></g></svg>