<svg xmlns="http://www.w3.org/2000/svg" xmlns:svg="http://www.w3.org/2000/svg" id="SVGRoot" width="24" height="24" version="1.1" viewBox="0 0 24 24"><metadata id="metadata818"/><g id="layer1"><rect style="opacity:.5;fill:#000;fill-opacity:1;fill-rule:nonzero;stroke:none;stroke-width:1;stroke-linecap:round;stroke-linejoin:miter;stroke-miterlimit:4;stroke-dasharray:none;stroke-opacity:1;paint-order:normal" id="rect10009" width="22" height="8" x="1" y="8"/><rect style="opacity:.5;fill:none;fill-opacity:1;fill-rule:nonzero;stroke:#2a7fff;stroke-width:.99999994;stroke-linecap:round;stroke-linejoin:miter;stroke-miterlimit:4;stroke-dasharray:none;stroke-opacity:1;paint-order:normal" id="rect9999" width="23" height="9" x=".5" y="7.5" ry="0"/><g style="font-style:normal;font-variant:normal;font-weight:400;font-stretch:normal;font-size:4.05277014px;line-height:125%;font-family:'Zero &amp; Zero Is';-inkscape-font-specification:'Zero &amp; Zero Is';letter-spacing:0;word-spacing:0;fill:#fff;fill-opacity:1;stroke:none;stroke-width:.99999982px;stroke-linecap:butt;stroke-linejoin:miter;stroke-opacity:1;opacity:.9" id="text895" aria-label="PS"><path style="font-style:normal;font-variant:normal;font-weight:400;font-stretch:normal;font-size:8.10554028px;font-family:'Arial Black';-inkscape-font-specification:'Arial Black, ';fill:#fff;fill-opacity:1;stroke-width:.99999982px" id="path822" d="m 6.591689,9.098945 h 2.9802109 q 0.9736151,0 1.4564641,0.4630606 0.486808,0.4630604 0.486808,1.3179414 0,0.878628 -0.530343,1.373351 -0.526386,0.494723 -1.6108183,0.494723 H 8.3924805 v 2.153034 H 6.591689 Z m 1.8007915,2.473615 h 0.4393139 q 0.5184696,0 0.7282321,-0.178101 0.2097626,-0.182058 0.2097626,-0.46306 0,-0.273087 -0.1820581,-0.463061 -0.182058,-0.189974 -0.6846965,-0.189974 h -0.510554 z"/><path style="font-style:normal;font-variant:normal;font-weight:400;font-stretch:normal;font-size:8.10554028px;font-family:'Arial Black';-inkscape-font-specification:'Arial Black, ';fill:#fff;fill-opacity:1;stroke-width:.99999982px" id="path824" d="m 12.144459,12.98153 1.705804,-0.10686 q 0.05541,0.415568 0.225594,0.633246 0.277045,0.352242 0.791557,0.352242 0.383905,0 0.58971,-0.1781 0.209762,-0.182058 0.209762,-0.419525 0,-0.225594 -0.197889,-0.403694 -0.197889,-0.1781 -0.918206,-0.336411 -1.179419,-0.265172 -1.682058,-0.704486 -0.506596,-0.439314 -0.506596,-1.120053 0,-0.447229 0.257256,-0.8430074 0.261214,-0.3997361 0.779683,-0.6253298 0.522428,-0.2295514 1.42876,-0.2295514 1.112137,0 1.693931,0.4155672 0.585752,0.4116095 0.69657,1.3139844 l -1.689973,0.09894 q -0.06728,-0.39182 -0.284961,-0.569921 -0.21372,-0.1781 -0.593667,-0.1781 -0.312665,0 -0.470976,0.134565 -0.158312,0.130607 -0.158312,0.32058 0,0.138523 0.130607,0.249341 0.126649,0.114775 0.601583,0.21372 1.175462,0.253298 1.682058,0.514512 0.510554,0.257256 0.740105,0.641161 0.23351,0.383905 0.23351,0.858839 0,0.558047 -0.308707,1.029023 -0.308707,0.470977 -0.862797,0.716359 Q 15.682717,15 14.839709,15 13.359498,15 12.789578,14.430079 12.219657,13.860158 12.144459,12.98153 Z"/></g><g id="g19" aria-label="PS" transform="translate(20)" style="font-style:normal;font-variant:normal;font-weight:400;font-stretch:normal;font-size:4.05277014px;line-height:125%;font-family:'Zero &amp; Zero Is';-inkscape-font-specification:'Zero &amp; Zero Is';letter-spacing:0;word-spacing:0;opacity:.9;fill:#fff;fill-opacity:1;stroke:none;stroke-width:.99999982px;stroke-linecap:butt;stroke-linejoin:miter;stroke-opacity:1"><path id="path15" d="m 6.591689,9.098945 h 2.9802109 q 0.9736151,0 1.4564641,0.4630606 0.486808,0.4630604 0.486808,1.3179414 0,0.878628 -0.530343,1.373351 -0.526386,0.494723 -1.6108183,0.494723 H 8.3924805 v 2.153034 H 6.591689 Z m 1.8007915,2.473615 h 0.4393139 q 0.5184696,0 0.7282321,-0.178101 0.2097626,-0.182058 0.2097626,-0.46306 0,-0.273087 -0.1820581,-0.463061 -0.182058,-0.189974 -0.6846965,-0.189974 h -0.510554 z" style="font-style:normal;font-variant:normal;font-weight:400;font-stretch:normal;font-size:8.10554028px;font-family:'Arial Black';-inkscape-font-specification:'Arial Black, ';fill:#fff;fill-opacity:1;stroke-width:.99999982px"/><path id="path17" d="m 12.144459,12.98153 1.705804,-0.10686 q 0.05541,0.415568 0.225594,0.633246 0.277045,0.352242 0.791557,0.352242 0.383905,0 0.58971,-0.1781 0.209762,-0.182058 0.209762,-0.419525 0,-0.225594 -0.197889,-0.403694 -0.197889,-0.1781 -0.918206,-0.336411 -1.179419,-0.265172 -1.682058,-0.704486 -0.506596,-0.439314 -0.506596,-1.120053 0,-0.447229 0.257256,-0.8430074 0.261214,-0.3997361 0.779683,-0.6253298 0.522428,-0.2295514 1.42876,-0.2295514 1.112137,0 1.693931,0.4155672 0.585752,0.4116095 0.69657,1.3139844 l -1.689973,0.09894 q -0.06728,-0.39182 -0.284961,-0.569921 -0.21372,-0.1781 -0.593667,-0.1781 -0.312665,0 -0.470976,0.134565 -0.158312,0.130607 -0.158312,0.32058 0,0.138523 0.130607,0.249341 0.126649,0.114775 0.601583,0.21372 1.175462,0.253298 1.682058,0.514512 0.510554,0.257256 0.740105,0.641161 0.23351,0.383905 0.23351,0.858839 0,0.558047 -0.308707,1.029023 -0.308707,0.470977 -0.862797,0.716359 Q 15.682717,15 14.839709,15 13.359498,15 12.789578,14.430079 12.219657,13.860158 12.144459,12.98153 Z" style="font-style:normal;font-variant:normal;font-weight:400;font-stretch:normal;font-size:8.10554028px;font-family:'Arial Black';-inkscape-font-specification:'Arial Black, ';fill:#fff;fill-opacity:1;stroke-width:.99999982px"/></g></g></svg>