<svg xmlns="http://www.w3.org/2000/svg" xmlns:svg="http://www.w3.org/2000/svg" id="SVGRoot" width="24" height="24" version="1.1" viewBox="0 0 24 24"><metadata id="metadata818"/><g id="layer1"><g id="g1309" transform="matrix(0.02454353,0,0,0.02396844,11.697627,11.696399)" style="stroke-width:41.22985458"><ellipse id="path3951" cx="12.32" cy="12.667" rx="448.183" ry="458.937" style="opacity:.3;fill:#1ce434;fill-opacity:1;stroke:none;stroke-width:0;stroke-linejoin:miter;stroke-miterlimit:4;stroke-dasharray:none;stroke-opacity:1"/><path id="path8457" d="M 180.31081,-158.68724 -154.99558,184.66372 A 237.24452,242.93686 0 0 0 12.320305,255.60291 237.24452,242.93686 0 0 0 249.56435,12.66729 237.24452,242.93686 0 0 0 180.31081,-158.68724 Z" style="opacity:.8;fill:#1ce434;fill-opacity:1;stroke:none;stroke-width:0;stroke-linejoin:miter;stroke-miterlimit:4;stroke-dasharray:none;stroke-opacity:1"/><path id="path8455" d="M 179.63618,-159.32913 A 237.24452,242.93686 0 0 0 12.320305,-230.27014 237.24452,242.93686 0 0 0 -224.92374,12.66729 a 237.24452,242.93686 0 0 0 69.25536,171.35272 z" style="opacity:.5;fill:#1ce434;fill-opacity:1;stroke:none;stroke-width:0;stroke-linejoin:miter;stroke-miterlimit:4;stroke-dasharray:none;stroke-opacity:1"/></g></g></svg>