<svg xmlns="http://www.w3.org/2000/svg" xmlns:svg="http://www.w3.org/2000/svg" id="SVGRoot" width="16" height="16" version="1.1" viewBox="0 0 16 16"><metadata id="metadata818"/><g id="layer1" transform="translate(0,-8)"><path style="color:#000;font-style:normal;font-variant:normal;font-weight:400;font-stretch:normal;font-size:medium;line-height:normal;font-family:sans-serif;font-variant-ligatures:normal;font-variant-position:normal;font-variant-caps:normal;font-variant-numeric:normal;font-variant-alternates:normal;font-feature-settings:normal;text-indent:0;text-align:start;text-decoration:none;text-decoration-line:none;text-decoration-style:solid;text-decoration-color:#000;letter-spacing:normal;word-spacing:normal;text-transform:none;writing-mode:lr-tb;direction:ltr;text-orientation:mixed;dominant-baseline:auto;baseline-shift:baseline;text-anchor:start;white-space:normal;shape-padding:0;clip-rule:nonzero;display:inline;overflow:visible;visibility:visible;opacity:.5;isolation:auto;mix-blend-mode:normal;color-interpolation:sRGB;color-interpolation-filters:linearRGB;solid-color:#000;solid-opacity:1;vector-effect:none;fill:#2a7fff;fill-opacity:1;fill-rule:nonzero;stroke:none;stroke-width:2;stroke-linecap:butt;stroke-linejoin:round;stroke-miterlimit:4;stroke-dasharray:none;stroke-dashoffset:0;stroke-opacity:1;color-rendering:auto;image-rendering:auto;shape-rendering:auto;text-rendering:auto;enable-background:accumulate" id="path1026" d="m 2.1551869,10.865535 c -0.2539142,0 -0.5335239,0.01436 -0.8068937,0.246737 C 1.0749235,11.344653 0.9937669,11.730768 1.0003669,12 v 8.665796 c -7.71e-5,0.184354 0.071801,0.360556 0.1986388,0.486945 0.2358369,0.262362 0.5316763,0.528235 0.779403,0.755433 -0.075232,-0.06989 -0.2764296,-0.251173 -0.2327534,-0.542255 L 3.9562064,14.03469 c 0.06099,-0.227618 0.4081229,-0.49629 0.6794519,-0.499607 h 8.3533687 v -0.552054 l -0.0013,0.0052 c 0.0019,-0.260482 -0.07134,-0.638679 -0.34543,-0.874673 -0.274086,-0.235986 -0.55488,-0.241279 -0.809361,-0.249341 H 6.0156908 L 5.7084792,11.308094 C 5.6688895,11.236347 5.617007,11.173038 5.5554899,11.12141 5.4193132,11.007402 5.2186877,10.865535 4.9015856,10.865535 Z"/><path style="color:#000;font-style:normal;font-variant:normal;font-weight:400;font-stretch:normal;font-size:medium;line-height:normal;font-family:sans-serif;font-variant-ligatures:normal;font-variant-position:normal;font-variant-caps:normal;font-variant-numeric:normal;font-variant-alternates:normal;font-feature-settings:normal;text-indent:0;text-align:start;text-decoration:none;text-decoration-line:none;text-decoration-style:solid;text-decoration-color:#000;letter-spacing:normal;word-spacing:normal;text-transform:none;writing-mode:lr-tb;direction:ltr;text-orientation:mixed;dominant-baseline:auto;baseline-shift:baseline;text-anchor:start;white-space:normal;shape-padding:0;clip-rule:nonzero;display:inline;overflow:visible;visibility:visible;opacity:.9;isolation:auto;mix-blend-mode:normal;color-interpolation:sRGB;color-interpolation-filters:linearRGB;solid-color:#000;solid-opacity:1;vector-effect:none;fill:#2a7fff;fill-opacity:1;fill-rule:nonzero;stroke:none;stroke-width:1.85215795;stroke-linecap:round;stroke-linejoin:round;stroke-miterlimit:4;stroke-dasharray:none;stroke-dashoffset:0;stroke-opacity:1;paint-order:normal;color-rendering:auto;image-rendering:auto;shape-rendering:auto;text-rendering:auto;enable-background:accumulate" id="rect1030-7" d="M 4.6379836,13.535083 C 4.3315612,13.534549 4.0441308,13.745178 3.9562064,14.03469 l -2.192402,7.253784 c -0.1118229,0.371072 0.1455507,0.71133 0.5382026,0.711527 h 10.725267 c 0.306025,-4.1e-5 0.592752,-0.210536 0.680543,-0.499609 l 2.193636,-7.253782 c 0.111966,-0.371546 -0.146196,-0.712067 -0.539437,-0.711527 z"/></g></svg>