<svg xmlns="http://www.w3.org/2000/svg" xmlns:svg="http://www.w3.org/2000/svg" id="SVGRoot" width="24" height="24" version="1.1" viewBox="0 0 24 24"><metadata id="metadata818"/><g id="layer1"><path style="display:inline;opacity:.9;fill:#2a7fff;fill-opacity:1;stroke:none;stroke-width:.0348262" id="path2866" d="M 15.508539,5.678052 12.000003,1 8.4914612,5.678052 Z"/><path id="path3605" d="M 8.4914611,18.321948 11.999997,23 15.508539,18.321948 Z" style="display:inline;opacity:.9;fill:#2a7fff;fill-opacity:1;stroke:none;stroke-width:.0348262"/><path style="display:inline;opacity:.9;fill:#2a7fff;fill-opacity:1;stroke:none;stroke-width:.0348262" id="path3607" d="M 18.321948,15.508539 23,12.000003 18.321948,8.491461 Z"/><path id="path3609" d="M 5.678052,8.491461 1,11.999997 5.678052,15.508539 Z" style="display:inline;opacity:.9;fill:#2a7fff;fill-opacity:1;stroke:none;stroke-width:.0348262"/><path style="color:#000;font-style:normal;font-variant:normal;font-weight:400;font-stretch:normal;font-size:medium;line-height:normal;font-family:sans-serif;font-variant-ligatures:normal;font-variant-position:normal;font-variant-caps:normal;font-variant-numeric:normal;font-variant-alternates:normal;font-feature-settings:normal;text-indent:0;text-align:start;text-decoration:none;text-decoration-line:none;text-decoration-style:solid;text-decoration-color:#000;letter-spacing:normal;word-spacing:normal;text-transform:none;writing-mode:lr-tb;direction:ltr;text-orientation:mixed;dominant-baseline:auto;baseline-shift:baseline;text-anchor:start;white-space:normal;shape-padding:0;clip-rule:nonzero;display:inline;overflow:visible;visibility:visible;opacity:.7;isolation:auto;mix-blend-mode:normal;color-interpolation:sRGB;color-interpolation-filters:linearRGB;solid-color:#000;solid-opacity:1;vector-effect:none;fill:#2a7fff;fill-opacity:1;fill-rule:nonzero;stroke:none;stroke-width:2;stroke-linecap:round;stroke-linejoin:miter;stroke-miterlimit:4;stroke-dasharray:none;stroke-dashoffset:0;stroke-opacity:1;paint-order:normal;color-rendering:auto;image-rendering:auto;shape-rendering:auto;text-rendering:auto;enable-background:accumulate" id="rect3613" d="M 8.1523438 7 C 7.5310292 7 7 7.5310292 7 8.1523438 L 7 15.847656 C 7 16.468973 7.5310276 17 8.1523438 17 L 15.847656 17 C 16.468974 17 17 16.468974 17 15.847656 L 17 8.1523438 C 17 7.5310276 16.468973 7 15.847656 7 L 8.1523438 7 z M 12.5 8 A 0.5 0.5 0 0 1 13 8.5 A 0.5 0.5 0 0 1 12.5 9 A 0.5 0.5 0 0 1 12 8.5 A 0.5 0.5 0 0 1 12.5 8 z M 14 8 A 0.5 0.5 0 0 1 14.5 8.5 A 0.5 0.5 0 0 1 14 9 A 0.5 0.5 0 0 1 13.5 8.5 A 0.5 0.5 0 0 1 14 8 z M 15.5 8 A 0.5 0.5 0 0 1 16 8.5 A 0.5 0.5 0 0 1 15.5 9 A 0.5 0.5 0 0 1 15 8.5 A 0.5 0.5 0 0 1 15.5 8 z M 9 10 L 15 10 L 15 15 L 9 15 L 9 10 z"/><rect id="rect3655" width="8" height="8" x="-18" y="8" rx=".153" ry=".153" style="opacity:.7;fill:#2a7fff;fill-opacity:.53333285;fill-rule:nonzero;stroke:#2a7fff;stroke-width:2;stroke-linecap:round;stroke-linejoin:miter;stroke-miterlimit:4;stroke-dasharray:none;stroke-opacity:1;paint-order:normal"/></g></svg>