<svg xmlns="http://www.w3.org/2000/svg" xmlns:svg="http://www.w3.org/2000/svg" id="SVGRoot" width="16" height="16" version="1.1" viewBox="0 0 16 16"><metadata id="metadata818"/><g id="layer1" transform="translate(0,-8)"><rect style="opacity:1;fill:none;fill-opacity:.94495413;fill-rule:nonzero;stroke:#000;stroke-width:1;stroke-linecap:round;stroke-linejoin:miter;stroke-miterlimit:4;stroke-dasharray:none;stroke-opacity:1;paint-order:normal" id="rect937" width="13" height="13" x="1.5" y="9.5"/><path style="opacity:1;fill:#2a7fff;fill-opacity:1;fill-rule:nonzero;stroke:none;stroke-width:1;stroke-linecap:round;stroke-linejoin:miter;stroke-miterlimit:4;stroke-dasharray:none;stroke-opacity:1;paint-order:normal" id="path1543" d="M 14 8 C 12.5 8 11 8.375 9.59375 8.9375 C 8.1875 9.5 6.875 10.25 5.75 11 C 3.5 12.5 2 14 2 14 L 14 14 L 14 8 z" transform="translate(0,8)"/><path style="opacity:.3;fill:#2a7fff;fill-opacity:1;fill-rule:nonzero;stroke:none;stroke-width:1;stroke-linecap:round;stroke-linejoin:miter;stroke-miterlimit:4;stroke-dasharray:none;stroke-opacity:1;paint-order:normal" id="rect3013" d="M 2 2 L 2 14 C 2 14 3.5 12.5 5.75 11 C 6.875 10.25 8.1875 9.5 9.59375 8.9375 C 11 8.375 12.5 8 14 8 L 14 2 L 2 2 z" transform="translate(0,8)"/></g></svg>