<svg xmlns="http://www.w3.org/2000/svg" xmlns:svg="http://www.w3.org/2000/svg" id="SVGRoot" width="16" height="16" version="1.1" viewBox="0 0 16 16"><metadata id="metadata818"/><g id="layer1" transform="translate(0,-8)"><rect style="opacity:1;fill:none;fill-opacity:.94495413;fill-rule:nonzero;stroke:#000;stroke-width:1;stroke-linecap:round;stroke-linejoin:miter;stroke-miterlimit:4;stroke-dasharray:none;stroke-opacity:1;paint-order:normal" id="rect937" width="13" height="13" x="1.5" y="9.5"/><path style="opacity:1;fill:#2a7fff;fill-opacity:1;fill-rule:nonzero;stroke:none;stroke-width:1;stroke-linecap:round;stroke-linejoin:miter;stroke-miterlimit:4;stroke-dasharray:none;stroke-opacity:1;paint-order:normal" id="path1519" d="M 14 2 C 12.5 2 11.1875 2.1875 10.039062 2.515625 C 8.890625 2.84375 7.90625 3.3125 7.0625 3.875 C 6.21875 4.4375 5.515625 5.09375 4.9296875 5.796875 C 4.34375 6.5 3.875 7.25 3.5 8 C 2.75 9.5 2.375 11 2.1875 12.125 C 2 13.25 2 14 2 14 L 14 14 L 14 2 z" transform="translate(0,8)"/><path style="opacity:.3;fill:#2a7fff;fill-opacity:1;fill-rule:nonzero;stroke:none;stroke-width:1;stroke-linecap:round;stroke-linejoin:miter;stroke-miterlimit:4;stroke-dasharray:none;stroke-opacity:1;paint-order:normal" id="rect3013" d="M 2 2 L 2 14 C 2 14 2 13.25 2.1875 12.125 C 2.375 11 2.75 9.5 3.5 8 C 3.875 7.25 4.34375 6.5 4.9296875 5.796875 C 5.515625 5.09375 6.21875 4.4375 7.0625 3.875 C 7.90625 3.3125 8.890625 2.84375 10.039062 2.515625 C 11.1875 2.1875 12.5 2 14 2 L 2 2 z" transform="translate(0,8)"/></g></svg>