<svg xmlns="http://www.w3.org/2000/svg" xmlns:svg="http://www.w3.org/2000/svg" id="SVGRoot" width="16" height="16" version="1.1" viewBox="0 0 16 16"><metadata id="metadata818"/><g id="layer1" transform="translate(0,-8)"><rect style="opacity:.3;fill:#2a7fff;fill-opacity:1;stroke:none;stroke-width:1;stroke-linecap:square;stroke-linejoin:miter;stroke-miterlimit:4;stroke-dasharray:none;stroke-opacity:1" id="rect896" width="12" height="12" x="2" y="10"/><path style="fill:#00f;fill-opacity:1;stroke:none;stroke-width:1px;stroke-linecap:butt;stroke-linejoin:miter;stroke-opacity:1" id="path894" d="M 11 4.0234375 C 10.691576 4.0252479 10.345351 4.1582074 10 4.3535156 L 10 11.367188 C 12.008913 10.233429 14 8.0234375 14 8.0234375 L 14 6 C 14 6 12.197351 4.0164165 11 4.0234375 z" transform="translate(0,8)"/><rect style="opacity:1;fill:none;fill-opacity:.3;stroke:#000;stroke-width:.999999;stroke-linecap:square;stroke-linejoin:miter;stroke-miterlimit:4;stroke-dasharray:none;stroke-opacity:1" id="rect849" width="13" height="13" x="1.5" y="9.5"/><path style="fill:#fd0000;fill-opacity:1;stroke:none;stroke-width:1px;stroke-linecap:butt;stroke-linejoin:miter;stroke-opacity:1" id="path834" d="M 2 6 L 2 8.0234375 C 2 8.0234375 3.9910868 10.233429 6 11.367188 L 6 7.6972656 C 5.6537675 7.8922018 5.3071207 8.0252714 5 8.0234375 C 3.7936541 8.0162345 2 6 2 6 z" transform="translate(0,8)"/><path style="fill:#0f0;fill-opacity:1;stroke:none;stroke-width:1px;stroke-linecap:butt;stroke-linejoin:miter;stroke-opacity:1" id="path844" d="M 10 4.3535156 C 8.9719096 4.9349372 7.9511719 6.0839844 7.9511719 6.0839844 C 7.9511719 6.0839844 6.9807951 7.1450573 6 7.6972656 L 6 11.367188 C 6.6915471 11.757472 7.3844485 12.023438 8 12.023438 C 8.6155516 12.023438 9.3084528 11.757472 10 11.367188 L 10 4.3535156 z" transform="translate(0,8)"/></g></svg>