<svg xmlns="http://www.w3.org/2000/svg" xmlns:svg="http://www.w3.org/2000/svg" id="SVGRoot" width="24" height="24" version="1.1" viewBox="0 0 24 24"><metadata id="metadata818"/><g id="layer1"><path style="color:#000;font-style:normal;font-variant:normal;font-weight:400;font-stretch:normal;font-size:medium;line-height:normal;font-family:sans-serif;font-variant-ligatures:normal;font-variant-position:normal;font-variant-caps:normal;font-variant-numeric:normal;font-variant-alternates:normal;font-feature-settings:normal;text-indent:0;text-align:start;text-decoration:none;text-decoration-line:none;text-decoration-style:solid;text-decoration-color:#000;letter-spacing:normal;word-spacing:normal;text-transform:none;writing-mode:lr-tb;direction:ltr;text-orientation:mixed;dominant-baseline:auto;baseline-shift:baseline;text-anchor:start;white-space:normal;shape-padding:0;clip-rule:nonzero;display:inline;overflow:visible;visibility:visible;opacity:.7;isolation:auto;mix-blend-mode:normal;color-interpolation:sRGB;color-interpolation-filters:linearRGB;solid-color:#000;solid-opacity:1;vector-effect:none;fill:#2a7fff;fill-opacity:1;fill-rule:nonzero;stroke:none;stroke-width:2;stroke-linecap:round;stroke-linejoin:round;stroke-miterlimit:4;stroke-dasharray:none;stroke-dashoffset:2.00314951;stroke-opacity:1;paint-order:normal;color-rendering:auto;image-rendering:auto;shape-rendering:auto;text-rendering:auto;enable-background:accumulate" id="path814" d="M 10 1 C 5.0412819 1 1 5.0412819 1 10 C 1 14.958718 5.0412819 19 10 19 C 12.045471 19 13.929364 18.304475 15.443359 17.148438 C 15.073392 17.540358 15.075431 18.155432 15.458984 18.539062 L 19.626953 22.707031 C 20.0175 23.0975 20.650469 23.0975 21.041016 22.707031 L 22.873047 20.873047 C 23.263516 20.4825 23.263516 19.849531 22.873047 19.458984 L 18.707031 15.292969 C 18.316484 14.9025 17.683516 14.9025 17.292969 15.292969 L 17.166016 15.419922 C 18.311336 13.909868 19 12.034977 19 10 C 19 5.0412819 14.958718 1 10 1 z M 10 3 C 13.877838 3 17 6.1221621 17 10 C 17 13.877838 13.877838 17 10 17 C 6.1221621 17 3 13.877838 3 10 C 3 6.1221621 6.1221621 3 10 3 z"/><circle id="circle818" cx="-30" cy="10" r="8" style="opacity:.7;fill:none;fill-opacity:1;fill-rule:nonzero;stroke:#2a7fff;stroke-width:2;stroke-linecap:round;stroke-linejoin:round;stroke-miterlimit:4;stroke-dasharray:none;stroke-dashoffset:2.00314951;stroke-opacity:1;paint-order:normal"/><rect id="rect820" width="5.893" height="2.593" x="-4.243" y="26.87" transform="rotate(45)" style="opacity:.7;fill:#2a7fff;fill-opacity:1;fill-rule:nonzero;stroke:#2a7fff;stroke-width:1.99999988;stroke-linecap:round;stroke-linejoin:round;stroke-miterlimit:4;stroke-dasharray:none;stroke-dashoffset:2.00314951;stroke-opacity:1;paint-order:normal"/><path id="path4979" d="m 6,10 h 8 M 10,6 v 8" style="opacity:.9;fill:none;fill-rule:evenodd;stroke:#2a7fff;stroke-width:2;stroke-linecap:round;stroke-linejoin:miter;stroke-miterlimit:4;stroke-dasharray:none;stroke-opacity:1"/></g></svg>