<svg xmlns="http://www.w3.org/2000/svg" xmlns:svg="http://www.w3.org/2000/svg" id="SVGRoot" width="16" height="16" version="1.1" viewBox="0 0 16 16"><metadata id="metadata818"/><g id="layer1" transform="translate(0,-8)"><path style="color:#000;font-style:normal;font-variant:normal;font-weight:400;font-stretch:normal;font-size:medium;line-height:normal;font-family:sans-serif;font-variant-ligatures:normal;font-variant-position:normal;font-variant-caps:normal;font-variant-numeric:normal;font-variant-alternates:normal;font-feature-settings:normal;text-indent:0;text-align:start;text-decoration:none;text-decoration-line:none;text-decoration-style:solid;text-decoration-color:#000;letter-spacing:normal;word-spacing:normal;text-transform:none;writing-mode:lr-tb;direction:ltr;text-orientation:mixed;dominant-baseline:auto;baseline-shift:baseline;text-anchor:start;white-space:normal;shape-padding:0;clip-rule:nonzero;display:inline;overflow:visible;visibility:visible;opacity:.7;isolation:auto;mix-blend-mode:normal;color-interpolation:sRGB;color-interpolation-filters:linearRGB;solid-color:#000;solid-opacity:1;vector-effect:none;fill:#2a7fff;fill-opacity:1;fill-rule:nonzero;stroke:none;stroke-width:1.50000012;stroke-linecap:round;stroke-linejoin:round;stroke-miterlimit:4;stroke-dasharray:none;stroke-dashoffset:2.00314951;stroke-opacity:1;paint-order:normal;color-rendering:auto;image-rendering:auto;shape-rendering:auto;text-rendering:auto;enable-background:accumulate" id="circle818" d="M 7,1 C 3.6951749,1 1,3.695175 1,7 c 0,3.304825 2.6951749,6 6,6 1.1597667,0 2.2406824,-0.338405 3.160156,-0.912109 l 2.763672,2.765625 c 0.195481,0.196523 0.513503,0.196523 0.708984,0 l 1.220704,-1.222657 c 0.195151,-0.195271 0.195151,-0.51176 0,-0.707031 L 12.089844,10.160156 C 12.663219,9.2408655 13,8.1594062 13,7 13,3.695175 10.304825,1 7,1 Z m 0,1.5 c 2.4941648,0 4.5,2.005835 4.5,4.5 0,2.494165 -2.0058352,4.5 -4.5,4.5 C 4.5058352,11.5 2.5,9.494165 2.5,7 2.5,4.505835 4.5058352,2.5 7,2.5 Z" transform="translate(0,8)"/><circle style="opacity:.7;fill:none;fill-opacity:1;fill-rule:nonzero;stroke:#2a7fff;stroke-width:1.50000012;stroke-linecap:round;stroke-linejoin:round;stroke-miterlimit:4;stroke-dasharray:none;stroke-dashoffset:2.00314951;stroke-opacity:1;paint-order:normal" id="circle1483" cx="-13" cy="15" r="5.25"/><rect style="opacity:.7;fill:#2a7fff;fill-opacity:1;fill-rule:nonzero;stroke:#2a7fff;stroke-width:1;stroke-linecap:round;stroke-linejoin:round;stroke-miterlimit:4;stroke-dasharray:none;stroke-dashoffset:2.00314951;stroke-opacity:1;paint-order:normal" id="rect1485" width="3.928" height="1.728" x="7.227" y="18.935" transform="matrix(0.70707151,0.70714205,-0.70707151,0.70714205,0,0)"/><path id="path4979" d="M 4.0142425,15 H 9.9857576" style="opacity:.9;fill:none;fill-rule:evenodd;stroke:#2a7fff;stroke-width:1.5;stroke-linecap:round;stroke-linejoin:miter;stroke-miterlimit:4;stroke-dasharray:none;stroke-opacity:1"/></g></svg>