<svg xmlns="http://www.w3.org/2000/svg" xmlns:svg="http://www.w3.org/2000/svg" id="SVGRoot" width="24" height="24" version="1.1" viewBox="0 0 24 24"><metadata id="metadata818"/><g id="layer1"><path style="display:inline;opacity:.9;fill:#2a7fff;fill-opacity:1;stroke:none;stroke-width:.03482621" id="path2876" d="m 2.999999,12.000005 5,-3.750003 1e-6,7.499997 z"/><path id="rect899" d="m 21,1 -5,0 v 22 h 5 z M 20,3.5 A 1.5,1.5 0 0 1 18.5,5 1.5,1.5 0 0 1 17,3.5 1.5,1.5 0 0 1 18.5,2 1.5,1.5 0 0 1 20,3.5 Z m 0,13 A 1.5,1.5 0 0 1 18.5,18 1.5,1.5 0 0 1 17,16.5 1.5,1.5 0 0 1 18.5,15 1.5,1.5 0 0 1 20,16.5 Z m 0,4 A 1.5,1.5 0 0 1 18.5,22 1.5,1.5 0 0 1 17,20.5 1.5,1.5 0 0 1 18.5,19 1.5,1.5 0 0 1 20,20.5 Z" style="opacity:.7;fill:#2a7fff;fill-opacity:1;fill-rule:nonzero;stroke:none;stroke-width:3;stroke-linecap:square;stroke-linejoin:miter;stroke-miterlimit:4;stroke-dasharray:none;stroke-opacity:1;paint-order:normal"/><rect style="opacity:.7;fill:#2a7fff;fill-opacity:1;fill-rule:nonzero;stroke:none;stroke-width:3;stroke-linecap:square;stroke-linejoin:miter;stroke-miterlimit:4;stroke-dasharray:none;stroke-opacity:1;paint-order:normal" id="rect901" width="2" height="8" x="11" y="-16" transform="rotate(90)"/></g></svg>