<svg xmlns="http://www.w3.org/2000/svg" xmlns:svg="http://www.w3.org/2000/svg" id="SVGRoot" width="24" height="24" version="1.1" viewBox="0 0 24 24"><metadata id="metadata818"/><g id="layer1"><path style="display:inline;opacity:.9;fill:#2a7fff;fill-opacity:1;stroke:none;stroke-width:.03482621" id="path2876" d="m 22.000001,11.999995 -5,3.750003 L 17,8.250001 Z"/><path id="rect899" d="M 4,23 H 9 L 9,1 H 4 Z M 5,20.5 A 1.5,1.5 0 0 1 6.5,19 1.5,1.5 0 0 1 8,20.5 1.5,1.5 0 0 1 6.5,22 1.5,1.5 0 0 1 5,20.5 Z M 5,7.5 A 1.5,1.5 0 0 1 6.5,6 1.5,1.5 0 0 1 8,7.5 1.5,1.5 0 0 1 6.5,9 1.5,1.5 0 0 1 5,7.5 Z m 0,-4 A 1.5,1.5 0 0 1 6.5,2 1.5,1.5 0 0 1 8,3.5 1.5,1.5 0 0 1 6.5,5 1.5,1.5 0 0 1 5,3.5 Z" style="opacity:.7;fill:#2a7fff;fill-opacity:1;fill-rule:nonzero;stroke:none;stroke-width:3;stroke-linecap:square;stroke-linejoin:miter;stroke-miterlimit:4;stroke-dasharray:none;stroke-opacity:1;paint-order:normal"/><rect style="opacity:.7;fill:#2a7fff;fill-opacity:1;fill-rule:nonzero;stroke:none;stroke-width:3;stroke-linecap:square;stroke-linejoin:miter;stroke-miterlimit:4;stroke-dasharray:none;stroke-opacity:1;paint-order:normal" id="rect901" width="2" height="8" x="-13" y="9" transform="rotate(-90)"/></g></svg>