<svg xmlns="http://www.w3.org/2000/svg" xmlns:svg="http://www.w3.org/2000/svg" id="SVGRoot" width="24" height="24" version="1.1" viewBox="0 0 24 24"><metadata id="metadata818"/><g id="layer1"><path id="path829" d="m 19,21 c 0,0 -0.636364,0 -0.636364,0 C 18.363636,21 5,21 5,21 5,21 1,3 1,3 1,3 23,3 23,3 23,3 19,21 19,21 m -1.076923,-1.076923 c 0,0 0.434721,-2.390967 0.434721,-2.390967 0,0 -2.825688,0 -2.825688,0 0,0 -0.241512,2.390967 -0.241512,2.390967 0,0 2.632479,0 2.632479,0 M 18.6,16.2 c 0,0 0.851613,-4.683871 0.851613,-4.683871 0,0 -3.311828,0 -3.311828,0 0,0 -0.473118,4.683871 -0.473118,4.683871 0,0 2.933333,0 2.933333,0 m 1.186517,-6.5258426 c 0,0 0.769039,-4.2297129 0.769039,-4.2297129 0,0 -3.80247,0 -3.80247,0 0,0 -0.427243,4.2297129 -0.427243,4.2297129 0,0 3.460674,0 3.460674,0 M 13.974359,19.923077 c 0,0 0.144907,-2.390967 0.144907,-2.390967 0,0 -4.2385321,0 -4.2385321,0 0,0 0.1449071,2.390967 0.1449071,2.390967 0,0 3.948718,0 3.948718,0 M 14.2,16.2 c 0,0 0.283871,-4.683871 0.283871,-4.683871 0,0 -4.967742,0 -4.967742,0 0,0 0.283871,4.683871 0.283871,4.683871 0,0 4.4,0 4.4,0 m 0.395506,-6.5258426 c 0,0 0.256346,-4.2297129 0.256346,-4.2297129 0,0 -5.7037039,0 -5.7037039,0 0,0 0.2563463,4.2297129 0.2563463,4.2297129 0,0 5.1910116,0 5.1910116,0 M 8.7094017,19.923077 c 0,0 -0.2415118,-2.390967 -0.2415118,-2.390967 0,0 -2.8256881,0 -2.8256881,0 0,0 0.4347213,2.390967 0.4347213,2.390967 0,0 2.6324786,0 2.6324786,0 M 8.3333333,16.2 c 0,0 -0.4731182,-4.683871 -0.4731182,-4.683871 0,0 -3.311828,0 -3.311828,0 0,0 0.8516129,4.683871 0.8516129,4.683871 0,0 2.9333333,0 2.9333333,0 M 7.6741573,9.6741574 c 0,0 -0.4272437,-4.2297129 -0.4272437,-4.2297129 0,0 -3.8024692,0 -3.8024692,0 0,0 0.7690387,4.2297129 0.7690387,4.2297129 0,0 3.4606742,0 3.4606742,0" style="color:#000;font-style:normal;font-variant:normal;font-weight:400;font-stretch:normal;font-size:medium;line-height:normal;font-family:sans-serif;font-variant-ligatures:normal;font-variant-position:normal;font-variant-caps:normal;font-variant-numeric:normal;font-variant-alternates:normal;font-feature-settings:normal;text-indent:0;text-align:start;text-decoration:none;text-decoration-line:none;text-decoration-style:solid;text-decoration-color:#000;letter-spacing:normal;word-spacing:normal;text-transform:none;writing-mode:lr-tb;direction:ltr;text-orientation:mixed;dominant-baseline:auto;baseline-shift:baseline;text-anchor:start;white-space:normal;shape-padding:0;clip-rule:nonzero;display:inline;overflow:visible;visibility:visible;opacity:.7;isolation:auto;mix-blend-mode:normal;color-interpolation:sRGB;color-interpolation-filters:linearRGB;solid-color:#000;solid-opacity:1;vector-effect:none;fill:#2a7fff;fill-opacity:1;fill-rule:evenodd;stroke:none;stroke-width:2;stroke-linecap:butt;stroke-linejoin:miter;stroke-miterlimit:4;stroke-dasharray:none;stroke-dashoffset:0;stroke-opacity:1;color-rendering:auto;image-rendering:auto;shape-rendering:auto;text-rendering:auto;enable-background:accumulate"/><path id="path1484" d="M 56,2 V 22 M 48,2 V 22 M 42,16 H 62 M 42,8 H 62 M 42,2 H 62 V 22 H 42 Z" style="opacity:.7;fill:none;fill-rule:evenodd;stroke:#2a7fff;stroke-width:2;stroke-linecap:butt;stroke-linejoin:miter;stroke-miterlimit:4;stroke-dasharray:none;stroke-opacity:1"/></g></svg>