<svg xmlns="http://www.w3.org/2000/svg" xmlns:svg="http://www.w3.org/2000/svg" id="SVGRoot" width="24" height="24" version="1.1" viewBox="0 0 24 24"><metadata id="metadata818"/><g id="layer1"><g id="g934" transform="matrix(-1,0,0,1,24.153196,0)"><path id="path815" d="M 9.949033,8.4948032 7.969092,6.0502179 6.5454982,13.646832 l 7.8944748,0.719941 -2.021592,-2.59938 c 4.275719,-5.1547511 9.942843,-1.673533 9.942843,-1.673533 0,0 -6.425864,-8.1931439 -12.412191,-1.5990568 z" style="opacity:.7;fill:#2a7fff;fill-opacity:.53333285;fill-rule:nonzero;stroke:#2a7fff;stroke-width:1.58443224;stroke-linecap:butt;stroke-linejoin:round;stroke-miterlimit:4;stroke-dasharray:none;stroke-dashoffset:2.00314951;stroke-opacity:1;paint-order:normal"/><path id="path829" d="M 3.2089844,8.4277344 A 0.79229534,0.79229534 0 0 0 2.4375,9.0722656 L 1.0136719,16.669922 a 0.79229534,0.79229534 0 0 0 0.7070312,0.935547 l 7.8945313,0.71875 A 0.79229534,0.79229534 0 0 0 10.3125,17.048828 L 9.1230469,15.519531 6.9746094,15.324219 a 0.79229534,0.79229534 0 0 0 0.064453,0.09766 l 0.9003906,1.158203 -5.2089843,-0.474609 0.9472656,-5.056641 0.9023437,1.113281 a 0.79229534,0.79229534 0 0 0 0.070312,0.07617 L 5.03125,10.205078 3.8320312,8.7207031 A 0.79229534,0.79229534 0 0 0 3.2089844,8.4277344 Z" style="color:#000;font-style:normal;font-variant:normal;font-weight:400;font-stretch:normal;font-size:medium;line-height:normal;font-family:sans-serif;font-variant-ligatures:normal;font-variant-position:normal;font-variant-caps:normal;font-variant-numeric:normal;font-variant-alternates:normal;font-feature-settings:normal;text-indent:0;text-align:start;text-decoration:none;text-decoration-line:none;text-decoration-style:solid;text-decoration-color:#000;letter-spacing:normal;word-spacing:normal;text-transform:none;writing-mode:lr-tb;direction:ltr;text-orientation:mixed;dominant-baseline:auto;baseline-shift:baseline;text-anchor:start;white-space:normal;shape-padding:0;clip-rule:nonzero;display:inline;overflow:visible;visibility:visible;opacity:.35;isolation:auto;mix-blend-mode:normal;color-interpolation:sRGB;color-interpolation-filters:linearRGB;solid-color:#000;solid-opacity:1;vector-effect:none;fill:#2a7fff;fill-opacity:1;fill-rule:nonzero;stroke:none;stroke-width:1.58443224;stroke-linecap:butt;stroke-linejoin:round;stroke-miterlimit:4;stroke-dasharray:none;stroke-dashoffset:2.00314951;stroke-opacity:1;paint-order:normal;color-rendering:auto;image-rendering:auto;shape-rendering:auto;text-rendering:auto;enable-background:accumulate"/><path id="path880" d="m 3.6777344,11.048828 -0.9472656,5.056641 5.2089843,0.474609 -0.9003906,-1.158203 a 0.79229534,0.79229534 0 0 1 -0.064453,-0.09766 L 5.1347656,15.15625 C 4.5913076,15.107137 4.2081598,14.600804 4.3085938,14.064453 l 0.3417968,-1.826172 a 0.79229534,0.79229534 0 0 1 -0.070312,-0.07617 z" style="opacity:.35;fill:#2a7fff;fill-opacity:.53333285;fill-rule:nonzero;stroke:none;stroke-width:1.58443224;stroke-linecap:butt;stroke-linejoin:round;stroke-miterlimit:4;stroke-dasharray:none;stroke-dashoffset:2.00314951;stroke-opacity:1;paint-order:normal"/></g></g></svg>