<svg xmlns="http://www.w3.org/2000/svg" xmlns:svg="http://www.w3.org/2000/svg" id="SVGRoot" width="16" height="16" version="1.1" viewBox="0 0 16 16"><metadata id="metadata818"/><g id="layer1" transform="translate(0,-8)"><g id="g1780" transform="matrix(0.79388974,0,0,0.81158906,1.6567007,3.0040201)" style="stroke-width:1.24581015"><path style="opacity:.7;fill:none;fill-opacity:1;fill-rule:nonzero;stroke:#2a7fff;stroke-width:2.00000024;stroke-linecap:butt;stroke-linejoin:miter;stroke-miterlimit:4;stroke-dasharray:none;stroke-opacity:1;paint-order:normal" id="path1772" d="M 3.3537416 6.9582168 C 3.8197786 4.7633151 5.7218112 3.1199107 7.9973425 3.1199107 C 9.2576364 3.1199107 10.482613 3.6511274 11.373906 4.5668222" transform="matrix(1.2596208,0,0,1.2321507,-2.0868146,6.1558)"/><path style="opacity:.7;fill:none;fill-opacity:1;fill-rule:nonzero;stroke:#2a7fff;stroke-width:2.00000024;stroke-linecap:butt;stroke-linejoin:miter;stroke-miterlimit:4;stroke-dasharray:none;stroke-opacity:1;paint-order:normal" id="path1769" d="M 12.637947 9.1276442 C 12.133704 11.268755 10.256705 12.858979 8.0182943 12.858979 C 6.7580006 12.858979 5.5173881 12.311466 4.626094 11.395771" transform="matrix(1.2596208,0,0,1.2321507,-2.0868146,6.1558)"/><path id="path2876" d="M 15.547876,15.0907 14.720906,9.3019016 9.7590817,14.263724 Z" style="display:inline;opacity:.7;fill:#2a7fff;fill-opacity:1;stroke:none;stroke-width:.04338683"/><path style="display:inline;opacity:.7;fill:#2a7fff;fill-opacity:1;stroke:none;stroke-width:.04338683" id="path829" d="m 0.4324269,16.889219 0.82697,5.788799 4.961825,-4.961823 z"/></g></g></svg>