<svg xmlns="http://www.w3.org/2000/svg" xmlns:svg="http://www.w3.org/2000/svg" id="SVGRoot" width="16" height="16" version="1.1" viewBox="0 0 16 16"><metadata id="metadata818"/><g id="layer1" transform="translate(0,-8)"><path style="opacity:.7;fill:none;fill-opacity:1;fill-rule:nonzero;stroke:#2a7fff;stroke-width:2;stroke-linecap:butt;stroke-linejoin:round;stroke-miterlimit:4;stroke-dasharray:none;stroke-dashoffset:0;stroke-opacity:1;paint-order:normal" id="path1029" d="m 5.268672,12.405793 c -0.0019,0.0019 -0.0038,0.0039 -0.0057,0.0058"/><path id="path1597-3" d="M 3.390028,10.527595 7.1358337,14.295686 2,15.656154 Z" style="opacity:.9;fill:#2a7fff;fill-opacity:1;stroke:none;stroke-width:.54308969"/><path style="opacity:.7;fill:none;fill-opacity:1;fill-rule:nonzero;stroke:#2a7fff;stroke-width:2;stroke-linecap:butt;stroke-linejoin:round;stroke-miterlimit:4;stroke-dasharray:none;stroke-dashoffset:2;stroke-opacity:1;paint-order:normal" id="path1085" d="m 6.511406,20.495343 a 5,5 0 0 0 1.1548863,0.39684 5,5 0 0 0 1.2161127,0.105074"/><path style="opacity:.7;fill:none;fill-opacity:1;fill-rule:nonzero;stroke:#2a7fff;stroke-width:2;stroke-linecap:butt;stroke-linejoin:round;stroke-miterlimit:4;stroke-dasharray:none;stroke-dashoffset:2;stroke-opacity:1;paint-order:normal" id="path1096" d="m 4.701135,19 a 5,5 0 0 0 0.887626,0.913413"/><path style="opacity:.7;fill:none;fill-opacity:1;fill-rule:nonzero;stroke:#2a7fff;stroke-width:2;stroke-linecap:butt;stroke-linejoin:round;stroke-miterlimit:4;stroke-dasharray:none;stroke-dashoffset:2;stroke-opacity:1;paint-order:normal" id="path1103" d="m 3.863677,17.263528 a 5,5 0 0 0 0.303842,0.84478"/><path style="opacity:.7;fill:none;fill-opacity:1;fill-rule:nonzero;stroke:#2a7fff;stroke-width:2;stroke-linecap:butt;stroke-linejoin:round;stroke-miterlimit:4;stroke-dasharray:none;stroke-dashoffset:2;stroke-opacity:1;paint-order:normal" id="path1078" d="M 13.549711,17.212025 A 5,5 0 0 0 13.698835,16 a 5,5 0 0 0 -5,-5 5,5 0 0 0 -3.459061,1.389612"/><path style="opacity:.7;fill:none;fill-opacity:1;fill-rule:nonzero;stroke:#2a7fff;stroke-width:2;stroke-linecap:butt;stroke-linejoin:round;stroke-miterlimit:4;stroke-dasharray:none;stroke-dashoffset:2;stroke-opacity:1;paint-order:normal" id="path1105" d="m 10.454545,20.681611 a 5,5 0 0 0 2.48396,-2.031101"/></g></svg>