<svg xmlns="http://www.w3.org/2000/svg" xmlns:svg="http://www.w3.org/2000/svg" id="SVGRoot" width="24" height="24" version="1.1" viewBox="0 0 24 24"><metadata id="metadata818"/><g id="layer1"><g id="g1836" transform="rotate(-15,11.187498,12.645885)"><path style="opacity:.9;fill:#2a7fff;fill-opacity:1;stroke:none;stroke-width:1" id="path1597" d="m 21.88633,5.2315666 -6.912134,4.0181032 6.935146,3.9777132 z"/><path id="path1818" d="m 12,2.5 c -5.2289382,0 -9.5,4.2710618 -9.5,9.5 0,1.298279 0.3655524,2.729874 0.8813472,3.921296 l 2.555622,-1.485613 C 5.5840422,13.620466 5.5,12.888334 5.5,12 5.5,8.3923822 8.3923822,5.5 12,5.5 c 2.061772,1e-7 3.89068,0.8466571 5.117274,2.5038738 L 19.700981,6.5019353 C 17.910258,4.0825417 15.010009,2.5000001 12,2.5 Z" style="color:#000;font-style:normal;font-variant:normal;font-weight:400;font-stretch:normal;font-size:medium;line-height:normal;font-family:sans-serif;font-variant-ligatures:normal;font-variant-position:normal;font-variant-caps:normal;font-variant-numeric:normal;font-variant-alternates:normal;font-feature-settings:normal;text-indent:0;text-align:start;text-decoration:none;text-decoration-line:none;text-decoration-style:solid;text-decoration-color:#000;letter-spacing:normal;word-spacing:normal;text-transform:none;writing-mode:lr-tb;direction:ltr;text-orientation:mixed;dominant-baseline:auto;baseline-shift:baseline;text-anchor:start;white-space:normal;shape-padding:0;clip-rule:nonzero;display:inline;overflow:visible;visibility:visible;opacity:.5;isolation:auto;mix-blend-mode:normal;color-interpolation:sRGB;color-interpolation-filters:linearRGB;solid-color:#000;solid-opacity:1;vector-effect:none;fill:#2a7fff;fill-opacity:1;fill-rule:nonzero;stroke:none;stroke-width:3;stroke-linecap:butt;stroke-linejoin:miter;stroke-miterlimit:4;stroke-dasharray:none;stroke-dashoffset:0;stroke-opacity:1;paint-order:normal;color-rendering:auto;image-rendering:auto;shape-rendering:auto;text-rendering:auto;enable-background:accumulate"/><path id="path1824" d="m 8.1147226,13.16973 -6.912135,4.018104 6.935147,3.977712 z" style="opacity:.9;fill:#2a7fff;fill-opacity:1;stroke:none;stroke-width:1"/></g><circle style="opacity:.7;fill:#2a7fff;fill-opacity:1;fill-rule:nonzero;stroke:none;stroke-width:1;stroke-linecap:round;stroke-linejoin:miter;stroke-miterlimit:4;stroke-dasharray:none;stroke-opacity:1;paint-order:normal" id="path3756" cx="12" cy="12" r="3"/></g></svg>