<svg xmlns="http://www.w3.org/2000/svg" xmlns:svg="http://www.w3.org/2000/svg" id="SVGRoot" width="16" height="16" version="1.1" viewBox="0 0 16 16"><metadata id="metadata818"/><g id="layer1" transform="translate(0,-8)"><path style="opacity:.7;fill:none;fill-opacity:1;fill-rule:nonzero;stroke:#2a7fff;stroke-width:2;stroke-linecap:butt;stroke-linejoin:round;stroke-miterlimit:4;stroke-dasharray:none;stroke-dashoffset:0;stroke-opacity:1;paint-order:normal" id="path1029" d="m 11.430163,12.405793 c 0.0019,0.0019 0.0038,0.0039 0.0057,0.0058"/><path id="path1597-3" d="m 13.308807,10.527595 -3.7458057,3.768091 5.1358337,1.360468 z" style="opacity:.9;fill:#2a7fff;fill-opacity:1;stroke:none;stroke-width:.54308969"/><path style="opacity:.7;fill:none;fill-opacity:1;fill-rule:nonzero;stroke:#2a7fff;stroke-width:2;stroke-linecap:butt;stroke-linejoin:round;stroke-miterlimit:4;stroke-dasharray:none;stroke-dashoffset:2;stroke-opacity:1;paint-order:normal" id="path1085" d="M 10.187429,20.495343 A 5,5 0 0 1 9.0325427,20.892183 5,5 0 0 1 7.81643,20.997257"/><path style="opacity:.7;fill:none;fill-opacity:1;fill-rule:nonzero;stroke:#2a7fff;stroke-width:2;stroke-linecap:butt;stroke-linejoin:round;stroke-miterlimit:4;stroke-dasharray:none;stroke-dashoffset:2;stroke-opacity:1;paint-order:normal" id="path1096" d="m 11.9977,19 a 5,5 0 0 1 -0.887626,0.913413"/><path style="opacity:.7;fill:none;fill-opacity:1;fill-rule:nonzero;stroke:#2a7fff;stroke-width:2;stroke-linecap:butt;stroke-linejoin:round;stroke-miterlimit:4;stroke-dasharray:none;stroke-dashoffset:2;stroke-opacity:1;paint-order:normal" id="path1103" d="m 12.835158,17.263528 a 5,5 0 0 1 -0.303842,0.84478"/><path style="opacity:.7;fill:none;fill-opacity:1;fill-rule:nonzero;stroke:#2a7fff;stroke-width:2;stroke-linecap:butt;stroke-linejoin:round;stroke-miterlimit:4;stroke-dasharray:none;stroke-dashoffset:2;stroke-opacity:1;paint-order:normal" id="path1078" d="M 3.1491244 9.2120253 A 5 5 0 0 1 3 8 A 5 5 0 0 1 8 3 A 5 5 0 0 1 11.459061 4.3896124" transform="translate(0,8)"/><path style="opacity:.7;fill:none;fill-opacity:1;fill-rule:nonzero;stroke:#2a7fff;stroke-width:2;stroke-linecap:butt;stroke-linejoin:round;stroke-miterlimit:4;stroke-dasharray:none;stroke-dashoffset:2;stroke-opacity:1;paint-order:normal" id="path1105" d="M 6.2442904 12.681611 A 5 5 0 0 1 3.7603303 10.65051" transform="translate(0,8)"/></g></svg>