<svg xmlns="http://www.w3.org/2000/svg" xmlns:svg="http://www.w3.org/2000/svg" id="SVGRoot" width="16" height="16" version="1.1" viewBox="0 0 16 16"><metadata id="metadata818"/><g id="layer1" transform="translate(0,-8)"><g id="g132" transform="matrix(0.63636364,0,0,0.63636364,0.36363636,8.3636364)"><path style="display:inline;opacity:.7;fill:none;stroke:#2a7fff;stroke-width:1.54013252;stroke-linecap:round;stroke-linejoin:miter;stroke-miterlimit:4;stroke-dasharray:none;stroke-opacity:1" id="path10544" d="m 12,22.218966 c 0,-1.397862 0,-4.130048 0,-4.130048"/><path id="path10560" d="M 17.036906,21.579977 15.560045,18.00325" style="display:inline;opacity:.7;fill:none;stroke:#2a7fff;stroke-width:1.54013252;stroke-linecap:round;stroke-linejoin:miter;stroke-miterlimit:4;stroke-dasharray:none;stroke-opacity:1"/><path style="display:inline;opacity:.7;fill:none;stroke:#2a7fff;stroke-width:1.54013252;stroke-linecap:round;stroke-linejoin:miter;stroke-miterlimit:4;stroke-dasharray:none;stroke-opacity:1" id="path7762" d="M 6.9630942,21.579977 8.4399555,18.00325"/><path id="path7786" d="M 12,1.7810339 C 12,3.178896 12,5.911082 12,5.911082" style="display:inline;opacity:.7;fill:none;stroke:#2a7fff;stroke-width:1.54013252;stroke-linecap:round;stroke-linejoin:miter;stroke-miterlimit:4;stroke-dasharray:none;stroke-opacity:1"/><path style="display:inline;opacity:.7;fill:none;stroke:#2a7fff;stroke-width:1.54013252;stroke-linecap:round;stroke-linejoin:miter;stroke-miterlimit:4;stroke-dasharray:none;stroke-opacity:1" id="path7792" d="M 17.036906,2.4200231 15.560045,5.99675"/><path id="path7798" d="M 6.9630945,2.4200231 8.4399558,5.99675" style="display:inline;opacity:.7;fill:none;stroke:#2a7fff;stroke-width:1.54013252;stroke-linecap:round;stroke-linejoin:miter;stroke-miterlimit:4;stroke-dasharray:none;stroke-opacity:1"/><path id="path10566" d="M 21.510247,19.944776 19.240549,17.29159" style="display:inline;opacity:.7;fill:none;stroke:#2a7fff;stroke-width:1.54013252;stroke-linecap:round;stroke-linejoin:miter;stroke-miterlimit:4;stroke-dasharray:none;stroke-opacity:1"/><path style="display:inline;opacity:.7;fill:none;stroke:#2a7fff;stroke-width:1.54013252;stroke-linecap:round;stroke-linejoin:miter;stroke-miterlimit:4;stroke-dasharray:none;stroke-opacity:1" id="path7764" d="M 2.4897532,19.944776 4.7594511,17.29159"/><path style="display:inline;opacity:.7;fill:none;stroke:#2a7fff;stroke-width:1.54013252;stroke-linecap:round;stroke-linejoin:miter;stroke-miterlimit:4;stroke-dasharray:none;stroke-opacity:1" id="path7794" d="M 21.510247,4.055223 19.240549,6.708411"/><path id="path7800" d="M 2.4897535,4.055223 4.7594514,6.708411" style="display:inline;opacity:.7;fill:none;stroke:#2a7fff;stroke-width:1.54013252;stroke-linecap:round;stroke-linejoin:miter;stroke-miterlimit:4;stroke-dasharray:none;stroke-opacity:1"/><path id="rect3191" d="M 12,9 C 10.671182,9.000966 9.5013251,9.875974 9.125,11.150391 L 5.6015625,11.5 V 11 H 3 V 10 H 2 v 1.388672 H 1 v 1.222656 H 2 V 14 H 3 V 13 H 5.6015625 V 12.5 L 9.125,12.851562 C 9.502037,14.125205 10.671722,14.99929 12,15 c 1.328278,-7.1e-4 2.497963,-0.874795 2.875,-2.148438 L 18.398438,12.5 V 13 H 21 v 1 h 1 v -1.388672 h 1 V 11.388672 H 22 V 10 h -1 v 1 H 18.398438 L 18.398,11.5 14.875,11.150391 C 14.498675,9.875974 13.328818,9.000966 12,9 Z" style="display:inline;opacity:.7;fill:#2a7fff;fill-opacity:1;stroke:none;stroke-width:.02588202"/></g></g></svg>