<svg xmlns="http://www.w3.org/2000/svg" xmlns:svg="http://www.w3.org/2000/svg" id="SVGRoot" width="16" height="16" version="1.1" viewBox="0 0 16 16"><metadata id="metadata818"/><g id="layer1" transform="translate(0,-8)"><g id="g343" transform="matrix(0.63350135,0,0,0.63324167,0.39929312,8.4024149)"><g id="g945" transform="matrix(0.03575568,0,0,0.03575568,10.926502,10.759286)"><path style="opacity:.7;fill:none;stroke:#2a7fff;stroke-width:55.93516922;stroke-linecap:round;stroke-linejoin:miter;stroke-miterlimit:4;stroke-dasharray:none;stroke-opacity:1" id="path10542" d="m 30.023192,-162.18636 c 0,-28.37834 0,-83.84507 0,-83.84507"/><path id="path10544" d="m 30.023192,315.43105 c 0,-28.37833 0,-83.84507 0,-83.84507" style="opacity:.7;fill:none;stroke:#2a7fff;stroke-width:55.93516922;stroke-linecap:round;stroke-linejoin:miter;stroke-miterlimit:4;stroke-dasharray:none;stroke-opacity:1"/><path id="path10558" d="m -68.419893,-135.80861 c -14.18917,-24.57637 -41.922537,-72.61196 -41.922537,-72.61196" style="opacity:.7;fill:none;stroke:#2a7fff;stroke-width:41.95137787;stroke-linecap:round;stroke-linejoin:miter;stroke-miterlimit:4;stroke-dasharray:none;stroke-opacity:1"/><path style="opacity:.7;fill:none;stroke:#2a7fff;stroke-width:41.95137787;stroke-linecap:round;stroke-linejoin:miter;stroke-miterlimit:4;stroke-dasharray:none;stroke-opacity:1" id="path10560" d="M 170.38881,277.82019 C 156.19965,253.24384 128.46628,205.20823 128.46628,205.20823"/><path id="path10564" d="m -140.48523,-63.743275 c -24.57637,-14.18917 -72.61196,-41.922535 -72.61196,-41.922535" style="opacity:.7;fill:none;stroke:#2a7fff;stroke-width:41.95137787;stroke-linecap:round;stroke-linejoin:miter;stroke-miterlimit:4;stroke-dasharray:none;stroke-opacity:1"/><path style="opacity:.7;fill:none;stroke:#2a7fff;stroke-width:41.95137787;stroke-linecap:round;stroke-linejoin:miter;stroke-miterlimit:4;stroke-dasharray:none;stroke-opacity:1" id="path10566" d="M 273.14358,175.06543 C 248.56722,160.87627 200.53162,133.1429 200.53162,133.1429"/><path id="path10570" d="m -166.86298,34.69981 c -28.37834,0 -83.84507,0 -83.84507,0" style="opacity:.7;fill:none;stroke:#2a7fff;stroke-width:55.93516922;stroke-linecap:round;stroke-linejoin:miter;stroke-miterlimit:4;stroke-dasharray:none;stroke-opacity:1"/><path style="opacity:.7;fill:none;stroke:#2a7fff;stroke-width:55.93516922;stroke-linecap:round;stroke-linejoin:miter;stroke-miterlimit:4;stroke-dasharray:none;stroke-opacity:1" id="path10572" d="m 310.75443,34.69981 c -28.37833,0 -83.84507,0 -83.84507,0"/><path style="opacity:.7;fill:none;stroke:#2a7fff;stroke-width:41.95137787;stroke-linecap:round;stroke-linejoin:miter;stroke-miterlimit:4;stroke-dasharray:none;stroke-opacity:1" id="path10576" d="m 128.46628,-135.80861 c 14.18917,-24.57637 41.92253,-72.61196 41.92253,-72.61196"/><path id="path10578" d="m -110.34243,277.82019 c 14.189167,-24.57635 41.922537,-72.61196 41.922537,-72.61196" style="opacity:.7;fill:none;stroke:#2a7fff;stroke-width:41.95137787;stroke-linecap:round;stroke-linejoin:miter;stroke-miterlimit:4;stroke-dasharray:none;stroke-opacity:1"/><path style="opacity:.7;fill:none;stroke:#2a7fff;stroke-width:41.95137787;stroke-linecap:round;stroke-linejoin:miter;stroke-miterlimit:4;stroke-dasharray:none;stroke-opacity:1" id="path10582" d="m 200.53162,-63.743275 c 24.57636,-14.18917 72.61196,-41.922535 72.61196,-41.922535"/><path id="path10584" d="m -213.09719,175.06543 c 24.57635,-14.18916 72.61196,-41.92253 72.61196,-41.92253" style="opacity:.7;fill:none;stroke:#2a7fff;stroke-width:41.95137787;stroke-linecap:round;stroke-linejoin:miter;stroke-miterlimit:4;stroke-dasharray:none;stroke-opacity:1"/></g><circle id="path1023" cx="12" cy="12" r="4" style="opacity:.7;fill:#2a7fff;fill-opacity:1;fill-rule:nonzero;stroke:#2a7fff;stroke-width:2;stroke-linecap:round;stroke-linejoin:round;stroke-miterlimit:4;stroke-dasharray:none;stroke-dashoffset:2.00314951;stroke-opacity:1;paint-order:normal"/></g></g></svg>