<svg xmlns="http://www.w3.org/2000/svg" xmlns:svg="http://www.w3.org/2000/svg" id="SVGRoot" width="24" height="24" version="1.1" viewBox="0 0 24 24"><metadata id="metadata818"/><g id="layer1"><path style="color:#000;font-style:normal;font-variant:normal;font-weight:400;font-stretch:normal;font-size:medium;line-height:normal;font-family:sans-serif;font-variant-ligatures:normal;font-variant-position:normal;font-variant-caps:normal;font-variant-numeric:normal;font-variant-alternates:normal;font-feature-settings:normal;text-indent:0;text-align:start;text-decoration:none;text-decoration-line:none;text-decoration-style:solid;text-decoration-color:#000;letter-spacing:normal;word-spacing:normal;text-transform:none;writing-mode:lr-tb;direction:ltr;text-orientation:mixed;dominant-baseline:auto;baseline-shift:baseline;text-anchor:start;white-space:normal;shape-padding:0;clip-rule:nonzero;display:inline;overflow:visible;visibility:visible;opacity:.7;isolation:auto;mix-blend-mode:normal;color-interpolation:sRGB;color-interpolation-filters:linearRGB;solid-color:#000;solid-opacity:1;vector-effect:none;fill:#2a7fff;fill-opacity:1;fill-rule:nonzero;stroke:none;stroke-width:2;stroke-linecap:round;stroke-linejoin:round;stroke-miterlimit:4;stroke-dasharray:none;stroke-dashoffset:0;stroke-opacity:1;paint-order:normal;color-rendering:auto;image-rendering:auto;shape-rendering:auto;text-rendering:auto;enable-background:accumulate" id="path850" d="m 1,1 v 5 3 c -0.0191252,1.352323 2.0191252,1.352323 2,0 V 6 h 18 v 14 h -5 c -1.352323,-0.01912 -1.352323,2.019125 0,2 h 6 c 0.552262,-5.5e-5 0.999945,-0.447738 1,-1 V 6 1 Z M 3.5,2 C 4.3284271,2 5,2.6715729 5,3.5 5,4.3284271 4.3284271,5 3.5,5 2.6715729,5 2,4.3284271 2,3.5 2,2.6715729 2.6715729,2 3.5,2 Z m 4,0 C 8.3284271,2 9,2.6715729 9,3.5 9,4.3284271 8.3284271,5 7.5,5 6.6715729,5 6,4.3284271 6,3.5 6,2.6715729 6.6715729,2 7.5,2 Z m 4,0 C 12.328427,2 13,2.6715729 13,3.5 13,4.3284271 12.328427,5 11.5,5 10.671573,5 10,4.3284271 10,3.5 10,2.6715729 10.671573,2 11.5,2 Z m 9,0 C 21.328427,2 22,2.6715729 22,3.5 22,4.3284271 21.328427,5 20.5,5 19.671573,5 19,4.3284271 19,3.5 19,2.6715729 19.671573,2 20.5,2 Z"/><path id="path4979-3" d="m 3,17 h 8 M 7,13 v 8" style="opacity:.9;fill:none;fill-rule:evenodd;stroke:#2a7fff;stroke-width:2;stroke-linecap:round;stroke-linejoin:miter;stroke-miterlimit:4;stroke-dasharray:none;stroke-opacity:1"/></g></svg>